<?xml version="1.0" encoding="UTF-8" standalone="no"?>
<!DOCTYPE svg PUBLIC "-//W3C//DTD SVG 1.1//EN"
 "http://www.w3.org/Graphics/SVG/1.1/DTD/svg11.dtd">
<!-- Generated by graphviz version 10.0.1 (20240210.2158)
 -->
<!-- Title: library Pages: 1 -->
<svg width="263pt" height="136pt"
 viewBox="0.00 0.00 262.75 136.00" xmlns="http://www.w3.org/2000/svg" xmlns:xlink="http://www.w3.org/1999/xlink">
<g id="graph0" class="graph" transform="scale(1 1) rotate(0) translate(4 132)">
<title>library</title>
<polygon fill="white" stroke="none" points="-4,4 -4,-132 258.75,-132 258.75,4 -4,4"/>
<!-- Company -->
<g id="node1" class="node">
<title>Company</title>
<polygon fill="none" stroke="black" points="159.25,-128 90,-128 90,-92 159.25,-92 159.25,-128"/>
<text text-anchor="middle" x="124.62" y="-104.95" font-family="Times,serif" font-size="14.00">Company</text>
</g>
<!-- external -->
<g id="node2" class="node">
<title>external</title>
<polygon fill="none" stroke="black" points="254.75,-82 195.25,-82 195.25,-46 254.75,-46 254.75,-82"/>
<text text-anchor="middle" x="225" y="-58.95" font-family="Times,serif" font-size="14.00">external</text>
</g>
<!-- Company&#45;&gt;external -->
<g id="edge1" class="edge">
<title>Company&#45;&gt;external</title>
<path fill="none" stroke="black" d="M159.48,-94.17C167.61,-90.37 176.36,-86.28 184.71,-82.37"/>
<polygon fill="black" stroke="black" points="186.05,-85.61 193.63,-78.2 183.09,-79.27 186.05,-85.61"/>
</g>
<!-- Person -->
<g id="node3" class="node">
<title>Person</title>
<polygon fill="none" stroke="black" points="54,-82 0,-82 0,-46 54,-46 54,-82"/>
<text text-anchor="middle" x="27" y="-58.95" font-family="Times,serif" font-size="14.00">Person</text>
</g>
<!-- Person&#45;&gt;Company -->
<g id="edge2" class="edge">
<title>Person&#45;&gt;Company</title>
<path fill="none" stroke="black" d="M54.38,-76.69C62.16,-80.43 70.9,-84.64 79.48,-88.76"/>
<polygon fill="black" stroke="black" points="77.9,-91.89 88.43,-93.07 80.93,-85.58 77.9,-91.89"/>
</g>
<!-- Person&#45;&gt;external -->
<g id="edge5" class="edge">
<title>Person&#45;&gt;external</title>
<path fill="none" stroke="black" d="M54.43,-64C87.58,-64 144.73,-64 183.43,-64"/>
<polygon fill="black" stroke="black" points="183.29,-67.5 193.29,-64 183.29,-60.5 183.29,-67.5"/>
</g>
<!-- Address -->
<g id="node4" class="node">
<title>Address</title>
<polygon fill="none" stroke="black" points="154.75,-36 94.5,-36 94.5,0 154.75,0 154.75,-36"/>
<text text-anchor="middle" x="124.62" y="-12.95" font-family="Times,serif" font-size="14.00">Address</text>
</g>
<!-- Person&#45;&gt;Address -->
<g id="edge3" class="edge">
<title>Person&#45;&gt;Address</title>
<path fill="none" stroke="black" d="M54.38,-51.31C63.57,-46.89 74.1,-41.83 84.12,-37.01"/>
<polygon fill="black" stroke="black" points="85.44,-40.25 92.94,-32.76 82.41,-33.94 85.44,-40.25"/>
</g>
<!-- Address&#45;&gt;external -->
<g id="edge4" class="edge">
<title>Address&#45;&gt;external</title>
<path fill="none" stroke="black" d="M155.14,-31.8C164.37,-36.12 174.7,-40.95 184.5,-45.53"/>
<polygon fill="black" stroke="black" points="182.93,-48.66 193.47,-49.73 185.9,-42.32 182.93,-48.66"/>
</g>
</g>
</svg>
